# xmcd
#
# Track frame offsets: 
#        150
#        8070
#        22380
#        41119
#        53656
#        66200
#        82998
#        96912
#        109909
#        121451
#        137327
#        154906
#        167361
#        189013
#
# Disc length: 2729 seconds
#
# Revision: 1
# Processed by: cddbd v1.5.2PL0 Copyright (c) Steve Scherf et al.
# Submitted via: ExactAudioCopy v1.0b2
#
DISCID=af0aa70e
DTITLE=Liza Minnelli - Confessions
DYEAR=2010
DGENRE=Jazz
TTITLE0=Confession
TTITLE1=You Fascinate Me So
TTITLE2=All The Way
TTITLE3=I Hadn't Anyone Till You
TTITLE4=This Heart Of Mine
TTITLE5=I Got Lost In His Arms
TTITLE6=Remind Me
TTITLE7=Close Your Eyes
TTITLE8=He's A Tramp
TTITLE9=I Must Have That Man
TTITLE10=On Such A Night As This
TTITLE11=Moments Like This
TTITLE12=If I Had You
TTITLE13=At Last
EXTD=YEAR: 2010
EXTT0=
EXTT1=
EXTT2=
EXTT3=
EXTT4=
EXTT5=
EXTT6=
EXTT7=
EXTT8=
EXTT9=
EXTT10=
EXTT11=
EXTT12=
EXTT13=
PLAYORDER=
